<svg id="Groupe_61" data-name="Groupe 61" xmlns="http://www.w3.org/2000/svg" width="48" height="48" viewBox="0 0 48 48">
  <path id="Tracé_132" data-name="Tracé 132" d="M40.333,24.333v-16A5.349,5.349,0,0,0,35,3H19a5.349,5.349,0,0,0-5.333,5.333v5.333H8.333A5.349,5.349,0,0,0,3,19V45.667A5.349,5.349,0,0,0,8.333,51H21.667a2.675,2.675,0,0,0,2.667-2.667v-8h5.333v8A2.675,2.675,0,0,0,32.333,51H45.667A5.349,5.349,0,0,0,51,45.667v-16a5.349,5.349,0,0,0-5.333-5.333ZM13.667,45.667H8.333V40.333h5.333Zm0-10.667H8.333V29.667h5.333Zm0-10.667H8.333V19h5.333ZM24.333,35H19V29.667h5.333Zm0-10.667H19V19h5.333Zm0-10.667H19V8.333h5.333ZM35,35H29.667V29.667H35Zm0-10.667H29.667V19H35Zm0-10.667H29.667V8.333H35Zm10.667,32H40.333V40.333h5.333Zm0-10.667H40.333V29.667h5.333Z" transform="translate(-3 -3)" fill="#fec32d"/>
</svg>
