<svg xmlns="http://www.w3.org/2000/svg" width="172" height="43" viewBox="0 0 172 43">
  <g id="Composant_7_5" data-name="Composant 7 – 5" transform="translate(0 5)">
    <g id="apartment-24px" transform="translate(0 2)">
      <g id="Groupe_23" data-name="Groupe 23">
        <rect id="Rectangle_66" data-name="Rectangle 66" width="36" height="36" fill="none"/>
        <rect id="Rectangle_67" data-name="Rectangle 67" width="36" height="36" fill="none"/>
      </g>
      <g id="Groupe_24" data-name="Groupe 24" transform="translate(4.5 4.5)">
        <path id="Tracé_33" data-name="Tracé 33" d="M24,15V6a3.009,3.009,0,0,0-3-3H12A3.009,3.009,0,0,0,9,6V9H6a3.009,3.009,0,0,0-3,3V27a3.009,3.009,0,0,0,3,3h7.5A1.5,1.5,0,0,0,15,28.5V24h3v4.5A1.5,1.5,0,0,0,19.5,30H27a3.009,3.009,0,0,0,3-3V18a3.009,3.009,0,0,0-3-3ZM9,27H6V24H9Zm0-6H6V18H9Zm0-6H6V12H9Zm6,6H12V18h3Zm0-6H12V12h3Zm0-6H12V6h3Zm6,12H18V18h3Zm0-6H18V12h3Zm0-6H18V6h3Zm6,18H24V24h3Zm0-6H24V18h3Z" transform="translate(-3 -3)" fill="#3a3b3c"/>
      </g>
    </g>
    <text id="Buildings" transform="translate(42 30)" fill="#178fed" font-size="32" font-family="SegoeUI, Segoe UI" opacity="0"><tspan x="0" y="0">Buildings</tspan></text>
  </g>
</svg>
